<svg id="Layer_1" data-name="Layer 1" xmlns="http://www.w3.org/2000/svg" xmlns:xlink="http://www.w3.org/1999/xlink" viewBox="0 0 90 90"><defs><style>.cls-1{fill:#faa61a;}.cls-2{fill:none;}.cls-3{clip-path:url(#clip-path);}.cls-4{opacity:0.8;}.cls-5{fill:url(#radial-gradient);}.cls-6{fill:url(#radial-gradient-2);}.cls-7{fill:url(#radial-gradient-3);}.cls-8{fill:url(#radial-gradient-4);}.cls-9{clip-path:url(#clip-path-2);}.cls-10{fill:#8b0021;}</style><clipPath id="clip-path"><path class="cls-1" d="M67.51,8.17A42.66,42.66,0,0,0,45.69,2l0,23.43a19.52,19.52,0,0,1-.07,39l0,23.44a43,43,0,0,0,22-79.76Z"/></clipPath><radialGradient id="radial-gradient" cx="-702.46" cy="-36.56" r="77.02" gradientTransform="translate(735.69 195.64) rotate(9.02)" gradientUnits="userSpaceOnUse"><stop offset="0" stop-color="#faa61a"/><stop offset="0.99" stop-color="#8b0021"/></radialGradient><radialGradient id="radial-gradient-2" cx="-702.09" cy="-36.25" r="76.54" xlink:href="#radial-gradient"/><radialGradient id="radial-gradient-3" cx="-702.04" cy="-34.98" r="77.92" xlink:href="#radial-gradient"/><radialGradient id="radial-gradient-4" cx="-702.09" cy="-34.98" r="77.57" xlink:href="#radial-gradient"/><clipPath id="clip-path-2"><polygon class="cls-2" points="45.53 84.24 45.68 6.14 20.73 36.72 20.83 55.06 45.53 84.24"/></clipPath></defs><path class="cls-1" d="M67.51,8.17A42.66,42.66,0,0,0,45.69,2l0,23.43a19.52,19.52,0,0,1-.07,39l0,23.44a43,43,0,0,0,22-79.76Z"/><g class="cls-3"><g class="cls-4"><path class="cls-5" d="M14,50.4c-4.65-.74-8-2.63-9.36-5.7-3.78-8.42,7.9-20,27.87-29h0c20-9,38.57-9.37,42.35-.95s-8.9,22-28.87,31A55.93,55.93,0,0,1,14,50.4ZM33.16,17.12c-18.53,8.32-30.4,19.57-27.09,27s20.76,8.57,39.29.26S76.75,22.76,73.45,15.39,51.69,8.81,33.16,17.12Z"/><path class="cls-6" d="M17.55,66.8C12.45,66,8.8,63.92,7.3,60.57c-2-4.52.25-10.58,6.4-17,6-6.3,14-10.33,24.34-15h0c10.35-4.64,20.84-7.36,29.53-7.64,8.93-.29,15,2,17,6.55S84.31,38,78.16,44.5c-6,6.3-15,12.33-25.34,17C38.84,67.75,26.48,68.22,17.55,66.8Zm56.52-44a33.61,33.61,0,0,0-6.45-.35c-8.49.27-18.77,2.94-28.94,7.5h0c-10.17,4.57-18,8.47-23.85,14.63C9.22,50.49,7,56.08,8.72,59.93c3.72,8.29,22.67,9.45,43.46.13,10.17-4.57,19-10.47,24.85-16.63,5.6-5.9,7.83-11.49,6.11-15.34C81.91,25.37,78.72,23.54,74.07,22.81Z"/><path class="cls-7" d="M34.49,76.65c-3.72-.59-6.24-2.09-7.27-4.41-1.51-3.36.33-7.9,5.18-12.8C37.08,54.72,44.05,50.15,52,46.57s16-5.74,22.65-6.1c6.89-.36,11.51,1.29,13,4.64S87.35,53,82.49,57.92c-4.67,4.72-11.64,9.29-19.61,12.87s-16,5.74-22.65,6.09A26.94,26.94,0,0,1,34.49,76.65Zm45.66-34.4a25.7,25.7,0,0,0-5.4-.22c-6.45.35-14.3,2.46-22.1,6h0c-7.8,3.5-14.59,8-19.14,12.54-4.3,4.35-6.08,8.38-4.87,11.08s5.4,4,11.51,3.72c6.45-.35,14.29-2.46,22.09-6s14.6-8,19.15-12.55c4.3-4.34,6.08-8.38,4.87-11.07C85.45,44,83.31,42.75,80.15,42.25Z"/><path class="cls-8" d="M54.94,85.4C44.57,83.76,33.32,69,26.07,51,20,36,18.73,20.72,22.81,11.24c1.69-4,3.3-4.72,6.55-6C40.9.69,58,14.92,66.6,36.31h0c5.88,14.53,7,30.24,2.75,40-1.81,4.2-4.52,7.12-7.85,8.43A12.39,12.39,0,0,1,54.94,85.4ZM36.24,6.1a11.94,11.94,0,0,0-6.31.59C27,7.83,25.79,8.24,24.24,11.85c-3.92,9.12-3.66,25.91,2.28,40.6,8.54,21.14,24,35,34.41,30.88,2.93-1.16,5.35-3.78,7-7.59,4.06-9.44,3-24.69-2.75-38.85h0C58.34,20,46.29,7.7,36.24,6.1Z"/></g></g><g class="cls-9"><path class="cls-10" d="M63.76,53.14l1.47-4.64a.7.7,0,0,0-.43-.89l-3.56-1.68a15.81,15.81,0,0,0-.16-3.37l3.4-2a.7.7,0,0,0,.35-.93l-1.89-4.48a.71.71,0,0,0-.91-.4l-3.82,1a13.7,13.7,0,0,0-1.42-1.63l1.59-3.64a.71.71,0,0,0-.27-1L54,27.06a.7.7,0,0,0-1,.21l-2.5,3.11a15.25,15.25,0,0,0-3.26-.62l-1.17-3.82a.71.71,0,0,0-.82-.56l-4.8.79a.71.71,0,0,0-.6.79L40,31a15.7,15.7,0,0,0-2.87,1.63L33.7,30.45a.71.71,0,0,0-1,.11l-3.14,3.72a.72.72,0,0,0,.06,1l2.71,3h0a15.6,15.6,0,0,0-1.13,3.1l-4,.56a.7.7,0,0,0-.68.72l0,4.86a.72.72,0,0,0,.69.72l4,.51a16.2,16.2,0,0,0,1.16,3.09l-2.65,3a.7.7,0,0,0-.05,1l3.18,3.68a.7.7,0,0,0,1,.1l3.34-2.18c.3.21.6.41.92.61a16.18,16.18,0,0,0,2,1l-.07,4a.7.7,0,0,0,.61.78l4.81.73a.69.69,0,0,0,.81-.56l1.11-3.8a15.37,15.37,0,0,0,3.29-.67l2.52,3.05a.71.71,0,0,0,1,.2l4.13-2.57a.71.71,0,0,0,.25-1L56.94,55.6A15.37,15.37,0,0,0,59,52.93l3.87.69A.71.71,0,0,0,63.76,53.14Z"/></g></svg>